<?xml version="1.0" encoding="UTF-8" standalone="no"?>
<!-- Created with Inkscape (http://www.inkscape.org/) -->

<svg
   width="150"
   height="150"
   viewBox="0 0 39.687499 39.687501"
   version="1.1"
   id="svg5"
   inkscape:version="1.1 (c68e22c387, 2021-05-23)"
   sodipodi:docname="sect-adv-1.svg"
   inkscape:export-filename="C:\Users\loony\Desktop\WDD_130\wdd130\wwr\images\sect-adv-1.png"
   inkscape:export-xdpi="96"
   inkscape:export-ydpi="96"
   xmlns:inkscape="http://www.inkscape.org/namespaces/inkscape"
   xmlns:sodipodi="http://sodipodi.sourceforge.net/DTD/sodipodi-0.dtd"
   xmlns="http://www.w3.org/2000/svg"
   xmlns:svg="http://www.w3.org/2000/svg">
  <sodipodi:namedview
     id="namedview7"
     pagecolor="#00ff88"
     bordercolor="#666666"
     borderopacity="1.0"
     inkscape:pageshadow="2"
     inkscape:pageopacity="0"
     inkscape:pagecheckerboard="0"
     inkscape:document-units="mm"
     showgrid="false"
     units="px"
     inkscape:zoom="2.096401"
     inkscape:cx="-42.215206"
     inkscape:cy="98.02514"
     inkscape:window-width="1920"
     inkscape:window-height="1017"
     inkscape:window-x="-8"
     inkscape:window-y="-8"
     inkscape:window-maximized="1"
     inkscape:current-layer="layer1" />
  <defs
     id="defs2" />
  <g
     inkscape:label="Layer 1"
     inkscape:groupmode="layer"
     id="layer1">
    <rect
       style="fill:#37c871;fill-opacity:1;stroke:none;stroke-width:1.3234;stroke-linecap:round;stroke-linejoin:bevel;stroke-miterlimit:4;stroke-dasharray:none;paint-order:markers fill stroke;stop-color:#000000"
       id="rect1621"
       width="39.6875"
       height="39.6875"
       x="0"
       y="0" />
    <path
       id="path1076"
       style="color:#000000;fill:#ffffff;stroke-width:3.77953;stroke-linecap:round;stroke-linejoin:bevel;-inkscape-stroke:none;paint-order:markers fill stroke"
       d="M 75.214844 5.7578125 A 1.9999999 1.9999999 0 0 0 73.212891 7.7578125 L 73.212891 30.353516 A 1.9999999 1.9999999 0 0 0 75.214844 32.355469 A 1.9999999 1.9999999 0 0 0 77.214844 30.353516 L 77.214844 7.7578125 A 1.9999999 1.9999999 0 0 0 75.214844 5.7578125 z M 27.638672 25.466797 A 1.9999999 1.9999999 0 0 0 26.220703 26.050781 A 1.9999999 1.9999999 0 0 0 26.220703 28.878906 L 42.203125 44.859375 A 1.9999999 1.9999999 0 0 0 45.029297 44.859375 A 1.9999999 1.9999999 0 0 0 45.029297 42.033203 L 29.046875 26.050781 A 1.9999999 1.9999999 0 0 0 27.638672 25.466797 z M 122.79688 25.466797 A 1.9999999 1.9999999 0 0 0 121.38867 26.050781 L 105.40625 42.033203 A 1.9999999 1.9999999 0 0 0 105.40625 44.859375 A 1.9999999 1.9999999 0 0 0 108.23242 44.859375 L 124.21484 28.878906 A 1.9999999 1.9999999 0 0 0 124.21484 26.050781 A 1.9999999 1.9999999 0 0 0 122.79688 25.466797 z M 75 39.914062 C 55.669852 39.914062 39.914063 55.669852 39.914062 75 C 39.914062 94.330148 55.669852 110.08594 75 110.08594 C 94.330148 110.08594 110.08594 94.330148 110.08594 75 C 110.08594 55.669852 94.330148 39.914063 75 39.914062 z M 75 47.916016 C 90.006633 47.916016 102.08398 59.993367 102.08398 75 C 102.08398 90.006633 90.006633 102.08398 75 102.08398 C 59.993367 102.08398 47.916016 90.006633 47.916016 75 C 47.916016 59.993367 59.993367 47.916016 75 47.916016 z M 7.9277344 73.050781 A 1.9999999 1.9999999 0 0 0 5.9277344 75.050781 A 1.9999999 1.9999999 0 0 0 7.9277344 77.044922 L 30.523438 77.044922 A 1.9999999 1.9999999 0 0 0 32.525391 75.050781 A 1.9999999 1.9999999 0 0 0 30.523438 73.050781 L 7.9277344 73.050781 z M 119.91211 73.050781 A 1.9999999 1.9999999 0 0 0 117.91016 75.050781 A 1.9999999 1.9999999 0 0 0 119.91211 77.044922 L 142.50781 77.044922 A 1.9999999 1.9999999 0 0 0 144.50781 75.050781 A 1.9999999 1.9999999 0 0 0 142.50781 73.050781 L 119.91211 73.050781 z M 43.615234 104.65039 A 1.9999999 1.9999999 0 0 0 42.203125 105.23633 L 26.220703 121.21875 A 1.9999999 1.9999999 0 0 0 26.220703 124.04492 A 1.9999999 1.9999999 0 0 0 29.046875 124.04492 L 45.029297 108.06445 A 1.9999999 1.9999999 0 0 0 45.029297 105.23633 A 1.9999999 1.9999999 0 0 0 43.615234 104.65039 z M 106.81641 104.65234 A 1.9999999 1.9999999 0 0 0 105.40625 105.23633 A 1.9999999 1.9999999 0 0 0 105.40625 108.06445 L 121.38867 124.04492 A 1.9999999 1.9999999 0 0 0 124.21484 124.04492 A 1.9999999 1.9999999 0 0 0 124.21484 121.21875 L 108.23242 105.23633 A 1.9999999 1.9999999 0 0 0 106.81641 104.65234 z M 75.214844 117.74023 A 1.9999999 1.9999999 0 0 0 73.212891 119.74219 L 73.212891 142.33789 A 1.9999999 1.9999999 0 0 0 75.214844 144.33789 A 1.9999999 1.9999999 0 0 0 77.214844 142.33789 L 77.214844 119.74219 A 1.9999999 1.9999999 0 0 0 75.214844 117.74023 z "
       transform="scale(0.26458333)" />
  </g>
</svg>
